<svg xmlns="http://www.w3.org/2000/svg" viewBox="0 0 756.78 283.79"><defs><style>.cls-1{fill:#00a84f;}.cls-1,.cls-2{fill-rule:evenodd;}.cls-2{fill:#ed1c24;}</style></defs><title>Asset 1</title><g id="Layer_2" data-name="Layer 2"><g id="Layer_1-2" data-name="Layer 1"><path class="cls-1" d="M246.07,281l35.47-15.34V193.69h39.39V168H281.53V140.28h52.63V114.54h-88.1V281ZM58.58,65.66,0,160.3l39.69,79.38L12.22,282.41H76.33l6.1-29-9.16-99.22H55l3.63-88.54Zm76.56,0,57.19,94.64-39.69,79.38,27.48,42.74H116l-6.11-30.53,9.17-97.69h18.31l-2.23-88.54Zm615.3,92.88c-10.64-2.11-21-4.44-37-4.44-26.6,0-51.17,11.46-51.17,37.43,0,43.51,59,27.37,59,51,0,11.69-13.68,14.74-22.29,14.74-11.65,0-22.8-3-33.44-8l-2,25.73c12.41,3,25.58,5.15,38.5,5.15,27.62,0,54.72-11.23,54.72-39.3,0-43.52-59-31.35-59-50.53,0-10.3,10.89-13.33,20-13.33,12.42,0,20,1.87,30.4,5.15l2.28-23.63ZM619.29,281l33.94-15.34V160.49H653v-1.06H577.83V126.34l-33.95,10.05v22.45c-7.93,0-16.61.11-18.44.11-20.27,0-34.19,17.68-35.71,28.91h-.5V160.49H459.08V281L493,265.64V236.76c0-12.77,1.5-32.82,12.64-42.72,11.76-10.45,30.46-9.36,35.24-9.4l.21-.3h2.77V281l33.95-15.34V184.33h41.47V281Zm0-142.48h33.94v-30H619.29v30Zm-303,83.05c0,34.62,25.08,62.24,68.14,62.24,43.33,0,68.4-27.61,68.4-62.23,0-39.77-29.64-63.86-68.4-63.86-38.5,0-68.14,24.1-68.14,63.86Zm35.47-3.74c0-18,10.64-35.8,32.68-35.8,22.29,0,32.93,17.31,32.93,35.8,0,20.12-6.84,41.64-32.93,41.64-25.83,0-32.68-21.76-32.68-41.64Z"/><path class="cls-2" d="M73.09,23.91C73.09,10.7,83.52,0,96.39,0S119.7,10.71,119.7,23.91,109.26,47.82,96.39,47.82,73.08,37.11,73.09,23.91Z"/></g></g></svg>